<svg width="57" height="57" viewBox="0 0 57 57" fill="none" xmlns="http://www.w3.org/2000/svg">
<path d="M55.7657 28.957C55.7657 44.1353 43.4353 56.4414 28.2227 56.4414C13.0101 56.4414 0.679688 44.1353 0.679688 28.957C0.679688 13.7788 13.0101 1.47266 28.2227 1.47266C43.4353 1.47266 55.7657 13.7788 55.7657 28.957Z" stroke="white"/>
<path d="M33.75 19.707H22.25C20.317 19.707 18.75 21.274 18.75 23.207V31.238C18.75 33.171 20.317 34.738 22.25 34.738H33.75C35.683 34.738 37.25 33.171 37.25 31.238V23.207C37.25 21.274 35.683 19.707 33.75 19.707Z" stroke="white" stroke-width="2" stroke-linecap="round" stroke-linejoin="round"/>
<path d="M25.1098 34.7383V38.2073M30.8898 34.7383V38.2073M22.5078 38.2073H33.4918" stroke="white" stroke-width="2" stroke-linecap="round" stroke-linejoin="round"/>
</svg>
