<svg width="57" height="57" viewBox="0 0 57 57" fill="none" xmlns="http://www.w3.org/2000/svg">
<path d="M56.3204 28.957C56.3204 44.1353 43.99 56.4414 28.7774 56.4414C13.5648 56.4414 1.23438 44.1353 1.23438 28.957C1.23438 13.7788 13.5648 1.47266 28.7774 1.47266C43.99 1.47266 56.3204 13.7788 56.3204 28.957Z" stroke="white"/>
<g clip-path="url(#clip0_1116_3205)">
<path d="M21.9263 28.9574V24.4488C21.9397 23.5626 22.1279 22.6877 22.4799 21.8743C22.832 21.0609 23.3412 20.325 23.9782 19.7087C24.6152 19.0924 25.3675 18.6079 26.1921 18.2828C27.0167 17.9578 27.8973 17.7987 28.7835 17.8146C29.6697 17.7987 30.5503 17.9578 31.3749 18.2828C32.1995 18.6079 32.9518 19.0924 33.5888 19.7087C34.2258 20.325 34.7349 21.0609 35.087 21.8743C35.4391 22.6877 35.6272 23.5626 35.6406 24.4488V28.9574M32.2121 37.9574C33.1214 37.9574 33.9934 37.5962 34.6364 36.9532C35.2794 36.3102 35.6406 35.4382 35.6406 34.5288V30.6717M32.2121 37.9574C32.2121 38.5257 31.9863 39.0708 31.5844 39.4726C31.1826 39.8745 30.6375 40.1003 30.0692 40.1003H27.4978C26.9294 40.1003 26.3844 39.8745 25.9825 39.4726C25.5807 39.0708 25.3549 38.5257 25.3549 37.9574C25.3549 37.3891 25.5807 36.8441 25.9825 36.4422C26.3844 36.0403 26.9294 35.8146 27.4978 35.8146H30.0692C30.6375 35.8146 31.1826 36.0403 31.5844 36.4422C31.9863 36.8441 32.2121 37.3891 32.2121 37.9574ZM19.3549 26.386H21.0692C21.2965 26.386 21.5145 26.4763 21.6753 26.637C21.836 26.7978 21.9263 27.0158 21.9263 27.2431V32.386C21.9263 32.6133 21.836 32.8313 21.6753 32.9921C21.5145 33.1528 21.2965 33.2431 21.0692 33.2431H19.3549C18.9003 33.2431 18.4642 33.0625 18.1427 32.741C17.8212 32.4195 17.6406 31.9835 17.6406 31.5288V28.1003C17.6406 27.6456 17.8212 27.2096 18.1427 26.8881C18.4642 26.5666 18.9003 26.386 19.3549 26.386ZM38.2121 33.2431H36.4978C36.2704 33.2431 36.0524 33.1528 35.8917 32.9921C35.7309 32.8313 35.6406 32.6133 35.6406 32.386V27.2431C35.6406 27.0158 35.7309 26.7978 35.8917 26.637C36.0524 26.4763 36.2704 26.386 36.4978 26.386H38.2121C38.6667 26.386 39.1027 26.5666 39.4242 26.8881C39.7457 27.2096 39.9263 27.6456 39.9263 28.1003V31.5288C39.9263 31.9835 39.7457 32.4195 39.4242 32.741C39.1027 33.0625 38.6667 33.2431 38.2121 33.2431Z" stroke="white" stroke-width="2" stroke-linecap="round" stroke-linejoin="round"/>
</g>
<defs>
<clipPath id="clip0_1116_3205">
<rect width="24" height="24" fill="white" transform="translate(16.7812 16.957)"/>
</clipPath>
</defs>
</svg>
