<svg width="57" height="57" viewBox="0 0 57 57" fill="none" xmlns="http://www.w3.org/2000/svg">
<path d="M55.8048 28.957C55.8048 44.1353 43.4744 56.4414 28.2618 56.4414C13.0492 56.4414 0.71875 44.1353 0.71875 28.957C0.71875 13.7788 13.0492 1.47266 28.2618 1.47266C43.4744 1.47266 55.8048 13.7788 55.8048 28.957Z" stroke="white"/>
<path d="M20.2656 34.3682C20.2656 33.3073 20.6871 32.2899 21.4372 31.5397C22.1873 30.7896 23.2048 30.3682 24.2656 30.3682H32.2656C33.3265 30.3682 34.3439 30.7896 35.0941 31.5397C35.8442 32.2899 36.2656 33.3073 36.2656 34.3682C36.2656 34.8986 36.0549 35.4073 35.6798 35.7824C35.3048 36.1574 34.7961 36.3682 34.2656 36.3682H22.2656C21.7352 36.3682 21.2265 36.1574 20.8514 35.7824C20.4763 35.4073 20.2656 34.8986 20.2656 34.3682Z" stroke="white" stroke-width="2" stroke-linejoin="round"/>
<path d="M28.2656 26.3682C29.9225 26.3682 31.2656 25.025 31.2656 23.3682C31.2656 21.7113 29.9225 20.3682 28.2656 20.3682C26.6088 20.3682 25.2656 21.7113 25.2656 23.3682C25.2656 25.025 26.6088 26.3682 28.2656 26.3682Z" stroke="white" stroke-width="2"/>
</svg>
